<svg xmlns="http://www.w3.org/2000/svg" viewBox="0 0 800 450">
  <defs>
    <linearGradient id="bg" x1="0" y1="0" x2="1" y2="1">
      <stop offset="0" stop-color="#2ee7ff" stop-opacity="0.35"/>
      <stop offset="1" stop-color="#7c5cff" stop-opacity="0.22"/>
    </linearGradient>
    <linearGradient id="g" x1="0" y1="0" x2="1" y2="1">
      <stop offset="0" stop-color="#2ee7ff"/>
      <stop offset="1" stop-color="#7c5cff"/>
    </linearGradient>
    <filter id="blur" x="-20%" y="-20%" width="140%" height="140%">
      <feGaussianBlur stdDeviation="18"/>
    </filter>
  </defs>
  <rect width="800" height="450" fill="rgba(255,255,255,0.02)"/>
  <circle cx="160" cy="120" r="120" fill="url(#bg)" filter="url(#blur)"/>
  <circle cx="650" cy="160" r="150" fill="url(#bg)" filter="url(#blur)"/>
  <path d="M0 320 C 150 260, 260 380, 420 330 C 560 286, 650 240, 800 290 L 800 450 L 0 450 Z" fill="rgba(0,0,0,0.25)"/>
  <path d="M0 290 C 170 230, 260 360, 430 300 C 590 244, 660 190, 800 250" fill="none" stroke="url(#g)" stroke-width="6" stroke-linecap="round" opacity="0.75"/>
  <path d="M60 70 h340" stroke="rgba(255,255,255,0.28)" stroke-width="10" stroke-linecap="round"/>
  <path d="M60 105 h260" stroke="rgba(255,255,255,0.18)" stroke-width="10" stroke-linecap="round"/>
  <text x="60" y="180" font-family="Inter,Arial" font-size="44" font-weight="800" fill="rgba(232,236,255,0.92)">Design System</text>
  <text x="60" y="218" font-family="Inter,Arial" font-size="18" font-weight="700" fill="rgba(169,178,214,0.9)">pilot999 • case study</text>
</svg>